# xmcd
#
# Track frame offsets:
#	150
#	12611
#	24355
#	37678
#	54132
#	66309
#	77478
#	92175
#	108338
#	119701
#	133473
#	149426
#	162880
#	175572
#	190826
#	206273
#	218986
#	233617
#
# Disc length: 3319 seconds
#
# Revision: 0
# Processed by: cddbd v1.5.2PL0 Copyright (c) Steve Scherf et al.
# Submitted via: EasyCDDAExtractor 16.0.6.1
#
DISCID=f20cf512
DTITLE=Αγγελόπουλος Μανώλης - Τραγούδια 45 στροφές-Αγγελόπουλος Μανώλης 2
DYEAR=1997
DGENRE=Λαϊκή
TTITLE0=Αγγελόπουλος Μανώλης - Μη γελάς, μη γελάς [Θάνου Σοφού]
TTITLE1=Αγγελόπουλος Μανώλης-Βασιλείου Αννούλα - Βάσανα που έχει η αγάπη [Μ. Α
TTITLE1=γγελόπουλου-Μιχ. Αλεξάκη]
TTITLE2=Αγγελόπουλος Μανώλης-Βασιλείου Αννούλα - Παντού θα βρεις την ψευτιά [Μ
TTITLE2=Αγγελόπουλου-Μιχ. Αλεξάκη]
TTITLE3=Αγγελόπουλος Μανώλης - Τσιγγάνικα είναι τα μάτια σου [Απ. Καλδάρα]
TTITLE4=Αγγελόπουλος Μανώλης-Βασιλείου Αννούλα - Τι ζωή είν' αυτή [Μ. Καράμπελ
TTITLE4=α]
TTITLE5=Αγγελόπουλος Μανώλης-Βασιλείου Αννούλα - Το λάθος [Μ. Αγγελόπουλου-Μιχ
TTITLE5=Αλεξάκη]
TTITLE6=Αγγελόπουλος Μανώλης-Βασιλείου Αννούλα - Δεν μπορώ να σε ξεχάσω [Μ. Αγ
TTITLE6=γελόπουλου]
TTITLE7=Αγγελόπουλος Μανώλης - Θ' αλλάξω γειτονιά [Γιάννη Καραμπεσίνη]
TTITLE8=Αγγελόπουλος Μανώλης - Αμφιβολία [Μ. Αγγελόπουλου-Κ. Καρουσάκη]
TTITLE9=Αγγελόπουλος Μανώλης-Βασιλείου Αννούλα - Γλέντα μωρό μου [Νίκου Δαλέζι
TTITLE9=ου]
TTITLE10=Αγγελόπουλος Μανώλης - Φτώχεια σε γνώρισα [Μ. Αγγελόπουλου-Μιχ. Αλεξά
TTITLE10=κη]
TTITLE11=Αγγελόπουλος Μανώλης-Βασιλείου Αννούλα - Δεν αξίζεις εσύ [Γιάννη Καρα
TTITLE11=μπεσίνη]
TTITLE12=Αγγελόπουλος Μανώλης - Μη μού χαλάς τα γούστα μου [Γιάννη Καραμπεσίνη
TTITLE12=]
TTITLE13=Αγγελόπουλος Μανώλης - Φτωχό κορίτσι [Β. Καραπατάκη-Α. Αττικού]
TTITLE14=Αγγελόπουλος Μανώλης - Όσα κι αν σού λέν' οι ξένοι [Μ. Καράμπελα]
TTITLE15=Αγγελόπουλος Μανώλης-Βασιλείου Αννούλα - Με λουλούδια κόκκινα [Β. Καρ
TTITLE15=απατάκη-Α. Αττικού]
TTITLE16=Αγγελόπουλος Μανώλης-Βασιλείου Αννούλα - Τα μαλιά μου έχουν ασπρίσει 
TTITLE16=[Μ. Αγγελόπουλου]
TTITLE17=Αγγελόπουλος Μανώλης - Του πόνου το τραγούδι [Μ. Αγγελόπουλου]
EXTD=
EXTT0=
EXTT1=
EXTT2=
EXTT3=
EXTT4=
EXTT5=
EXTT6=
EXTT7=
EXTT8=
EXTT9=
EXTT10=
EXTT11=
EXTT12=
EXTT13=
EXTT14=
EXTT15=
EXTT16=
EXTT17=
PLAYORDER=
